<svg preserveAspectRatio="none" width="302" height="707" viewBox="0 0 302 707" fill="none" xmlns="http://www.w3.org/2000/svg">
<g filter="url(#filter0_f_1_14)">
<path fill-rule="evenodd" clip-rule="evenodd" d="M0.999985 706C10.7887 697.627 23.6897 683.307 43.3488 661.485L43.3491 661.484L274.017 405.442L274.017 405.442L274.017 405.441C285.636 392.545 291.445 386.097 294.856 379.344C303.048 363.125 303.048 343.875 294.856 327.656C291.445 320.903 285.636 314.454 274.017 301.558L43.3491 45.5151L43.349 45.515C23.6897 23.6931 10.7887 9.37296 0.999985 0.999756V706Z" fill="#362418"/>
</g>
<path fill-rule="evenodd" clip-rule="evenodd" d="M1 701C10.7888 692.686 23.6898 678.468 43.3491 656.8L274.017 402.574L274.017 402.573L274.017 402.573L274.018 402.573C285.636 389.768 291.445 383.366 294.856 376.661C303.048 360.557 303.048 341.443 294.856 325.339C291.445 318.634 285.635 312.231 274.017 299.426L43.349 45.1996L43.349 45.1996C23.6898 23.5324 10.7888 9.31382 1 1V701Z" fill="#F5F5F5"/>
<path fill-rule="evenodd" clip-rule="evenodd" d="M0.999985 669.001C9.85109 661.484 21.5163 648.627 39.2925 629.035L247.865 399.16L247.865 399.16C258.37 387.582 263.623 381.792 266.708 375.729C274.115 361.168 274.115 343.885 266.708 329.324C263.623 323.261 258.37 317.472 247.865 305.893L39.2924 76.0184C21.5163 56.4267 9.85109 43.57 0.999985 36.0526V669.001Z" fill="#7C9299"/>
<defs>
<filter id="filter0_f_1_14" x="-1.52588e-05" y="-0.000244141" width="302" height="707" filterUnits="userSpaceOnUse" color-interpolation-filters="sRGB">
<feFlood flood-opacity="0" result="BackgroundImageFix"/>
<feBlend mode="normal" in="SourceGraphic" in2="BackgroundImageFix" result="shape"/>
<feGaussianBlur stdDeviation="0.5" result="effect1_foregroundBlur_1_14"/>
</filter>
</defs>
</svg>
